<?xml version="1.0" encoding="UTF-8" standalone="no"?>
<svg
   xmlns:dc="http://purl.org/dc/elements/1.1/"
   xmlns:cc="http://creativecommons.org/ns#"
   xmlns:rdf="http://www.w3.org/1999/02/22-rdf-syntax-ns#"
   xmlns:svg="http://www.w3.org/2000/svg"
   xmlns="http://www.w3.org/2000/svg"
   xmlns:sodipodi="http://sodipodi.sourceforge.net/DTD/sodipodi-0.dtd"
   xmlns:inkscape="http://www.inkscape.org/namespaces/inkscape"
   version="1.1"
   x="0px"
   y="0px"
   viewBox="0 0 100 100"
   enable-background="new 0 0 100 100"
   xml:space="preserve"
   id="svg2"
   inkscape:version="0.91 r13725"
   sodipodi:docname="components.svg"
   width="100"
   height="100"
   inkscape:export-filename="C:\Projects\SpellParser\site\img\components.png"
   inkscape:export-xdpi="230.39999"
   inkscape:export-ydpi="230.39999"><metadata
     id="metadata20"><rdf:RDF><cc:Work
         rdf:about=""><dc:format>image/svg+xml</dc:format><dc:type
           rdf:resource="http://purl.org/dc/dcmitype/StillImage" /><dc:title /></cc:Work></rdf:RDF></metadata><defs
     id="defs18" /><sodipodi:namedview
     pagecolor="#ffffff"
     bordercolor="#666666"
     borderopacity="1"
     objecttolerance="10"
     gridtolerance="10"
     guidetolerance="10"
     inkscape:pageopacity="0"
     inkscape:pageshadow="2"
     inkscape:window-width="1361"
     inkscape:window-height="715"
     id="namedview16"
     showgrid="false"
     inkscape:zoom="2.6700352"
     inkscape:cx="-15.284009"
     inkscape:cy="50.810275"
     inkscape:window-x="2267"
     inkscape:window-y="177"
     inkscape:window-maximized="0"
     inkscape:current-layer="svg2" /><path
     inkscape:connector-curvature="0"
     id="path6"
     d="m 64.932,67.772 c 0.578,0.752 0.989,1.622 1.152,2.574 0.179,0.88 0.129,1.821 -0.143,2.711 -0.978,2.932 -4.14,4.546 -7.067,3.617 l -14.612,-4.742 -0.693,2.541 14.621,4.743 c 3.979,1.277 8.998,-0.863 10.318,-4.854 0.447,-1.39 0.261,-3.754 -0.072,-5.118 L 90.059,58.326 c 2.799,-1.388 6.862,-0.145 8.23,2.638 1.398,2.817 0.993,6.33 -2.854,8.235 L 59.309,87.282 c -1.835,0.849 -4.208,1.143 -6.431,0.588 L 22.528,82.125 1.151,95.004 0.965,70.401 1.071,70.339 0.993,70.176 26.255,57.686 c 0,0 2.666,-1.25 5.016,-1.087 2.166,0.15 4.367,0.831 4.367,0.831 l 26.686,8.606 c 1.013,0.32 1.909,0.914 2.608,1.736 z" /><path
     inkscape:connector-curvature="0"
     id="path8"
     d="M 64.514,59.663 C 53.763,59.663 43.962,53.327 39.548,43.524 33.358,29.773 39.507,13.546 53.256,7.35 56.823,5.745 60.599,4.929 64.48,4.929 c 10.751,0 20.548,6.333 24.961,16.131 3.004,6.662 3.23,14.095 0.642,20.929 -2.589,6.836 -7.685,12.253 -14.349,15.254 -3.566,1.607 -7.339,2.42 -11.22,2.42 l 0,0 z M 64.479,8.923 c -3.312,0 -6.536,0.696 -9.583,2.068 -11.742,5.29 -16.995,19.149 -11.708,30.894 3.771,8.374 12.144,13.785 21.326,13.785 3.312,0 6.534,-0.694 9.579,-2.066 C 79.785,51.042 84.138,46.414 86.35,40.576 88.56,34.74 88.365,28.391 85.8,22.702 82.03,14.332 73.662,8.923 64.479,8.923 l 0,0 z" /><path
     inkscape:connector-curvature="0"
     id="path10"
     d="m 64.953,47.918 c -1.707,0 -3.419,-0.289 -5.067,-0.87 -0.946,-0.333 -1.442,-1.37 -1.109,-2.314 0.333,-0.945 1.377,-1.438 2.314,-1.109 2.832,0.998 5.898,0.863 8.639,-0.369 2.826,-1.274 4.99,-3.575 6.091,-6.478 1.101,-2.903 1.003,-6.059 -0.271,-8.888 -0.647,-1.436 -1.555,-2.705 -2.701,-3.77 -0.734,-0.684 -0.774,-1.833 -0.093,-2.566 0.685,-0.732 1.833,-0.771 2.566,-0.092 1.501,1.398 2.69,3.059 3.536,4.938 1.673,3.711 1.801,7.855 0.356,11.665 -1.443,3.809 -4.284,6.829 -7.995,8.502 -1.998,0.897 -4.129,1.351 -6.266,1.351 l 0,0 z" /><path
     inkscape:connector-curvature="0"
     d="m 20.533624,8.198122 -1.880072,0 0,35.941036 c -1.929932,-1.099257 -5.025913,-0.899819 -7.873538,0.71167 -3.7276888,2.108673 -5.612935,5.828366 -4.2102891,8.308631 1.4031161,2.479325 5.5621351,2.780832 9.2898241,0.67169 2.751199,-1.556458 4.493453,-3.988275 4.656201,-6.154332 l 0.01788,-0.492009 0,-26.297021 c 12.407912,2.863617 10.809593,15.705211 6.594599,22.559455 l 0.455319,0 C 39.802835,21.358158 20.533624,22.297959 20.533624,8.198122 Z"
     id="path4161" /></svg>