<?xml version="1.0" encoding="UTF-8" standalone="no"?>
<svg
   xmlns:dc="http://purl.org/dc/elements/1.1/"
   xmlns:cc="http://creativecommons.org/ns#"
   xmlns:rdf="http://www.w3.org/1999/02/22-rdf-syntax-ns#"
   xmlns:svg="http://www.w3.org/2000/svg"
   xmlns="http://www.w3.org/2000/svg"
   xmlns:sodipodi="http://sodipodi.sourceforge.net/DTD/sodipodi-0.dtd"
   xmlns:inkscape="http://www.inkscape.org/namespaces/inkscape"
   version="1.1"
   x="0px"
   y="0px"
   viewBox="0 0 100 100"
   enable-background="new 0 0 100 100"
   xml:space="preserve"
   id="svg8"
   sodipodi:docname="concentration2.svg"
   width="100"
   height="100"
   inkscape:export-filename="C:\Projects\SpellParser\site\img\concentration2.png"
   inkscape:export-xdpi="245.75999"
   inkscape:export-ydpi="245.75999"
   inkscape:version="0.92.1 r15371"><metadata
     id="metadata14"><rdf:RDF><cc:Work
         rdf:about=""><dc:format>image/svg+xml</dc:format><dc:type
           rdf:resource="http://purl.org/dc/dcmitype/StillImage" /><dc:title /></cc:Work></rdf:RDF></metadata><defs
     id="defs12" /><sodipodi:namedview
     pagecolor="#ffffff"
     bordercolor="#666666"
     borderopacity="1"
     objecttolerance="10"
     gridtolerance="10"
     guidetolerance="10"
     inkscape:pageopacity="0"
     inkscape:pageshadow="2"
     inkscape:window-width="1920"
     inkscape:window-height="1017"
     id="namedview10"
     showgrid="false"
     inkscape:zoom="2.6700352"
     inkscape:cx="129.85605"
     inkscape:cy="16.299504"
     inkscape:window-x="1912"
     inkscape:window-y="-8"
     inkscape:window-maximized="1"
     inkscape:current-layer="svg8" /><path
     d="M 81.096657,78.983516 V 62.83374 C 86.802267,56.257784 90.090244,47.651017 89.896835,38.270608 89.316603,19.993318 74.714112,4.7138893 56.533525,3.4567211 36.225425,2.0061424 19.302007,17.28557 18.044838,36.916735 l -0.0967,0.967053 c 0,3.287978 -1.257169,8.316651 -2.707747,11.217808 -1.547284,2.997862 -3.191273,5.995725 -4.641852,8.12324 -1.3538731,2.030811 0.193411,4.835262 2.611042,4.835262 h 4.738557 v 17.213534 c 0,3.481388 2.804452,6.28584 6.28584,6.28584 h 9.863936 v 8.703472 c 0,1.643989 1.643988,2.804452 3.191272,2.224221 L 78.679026,82.3682 c 1.450578,-0.483527 2.417631,-1.8374 2.417631,-3.384684 z"
     id="path2"
     inkscape:connector-curvature="0"
     style="stroke-width:0.96705246"
     sodipodi:nodetypes="scccccccscsscsccs" /><circle
     style="fill:#ffffff;stroke:#ffffff;stroke-width:1.02340794;stroke-linecap:round;stroke-miterlimit:4;stroke-dasharray:none;stroke-dashoffset:0"
     id="path4508"
     cx="54.796848"
     cy="35.774609"
     r="23.037519" /><g
     transform="translate(6.256721,-965.46666)"
     id="g4484"><path
       inkscape:connector-curvature="0"
       style="color:#000000;text-indent:0;text-transform:none;direction:ltr;baseline-shift:baseline;display:inline;overflow:visible;visibility:visible;fill:#000000;fill-opacity:1;stroke:none;stroke-width:1.02340794;enable-background:accumulate"
       d="M 48.655422,973.05133 C 32.865875,973.05133 20,985.91721 20,1001.7068 c 0,15.7894 12.865875,28.6554 28.655422,28.6554 15.789649,0 28.655421,-12.866 28.655421,-28.6554 0,-15.78959 -12.865875,-28.65547 -28.655421,-28.65547 z m 0,6.14044 c 12.471044,0 22.514974,10.04405 22.514974,22.51503 0,12.4708 -10.04393,22.515 -22.514974,22.515 -12.470942,0 -22.514974,-10.0442 -22.514974,-22.515 0,-12.47098 10.04393,-22.51503 22.514974,-22.51503 z m 0,4.09365 c -1.695583,0 -3.070224,1.37464 -3.070224,3.07022 v 15.35116 c 0,1.1354 0.618752,2.1232 1.535112,2.6544 l 11.513339,6.6521 c 1.468386,0.8478 3.341631,0.3492 4.189525,-1.1193 0.847791,-1.4683 0.349084,-3.3418 -1.119301,-4.1896 l -9.978228,-5.75666 v -13.5921 c 0,-1.69558 -1.374539,-3.07022 -3.070223,-3.07022 z"
       marker="none"
       visibility="visible"
       display="inline"
       overflow="visible"
       id="path4482" /></g></svg>