<?xml version="1.0" encoding="UTF-8" standalone="no"?>
<svg
   xmlns:dc="http://purl.org/dc/elements/1.1/"
   xmlns:cc="http://creativecommons.org/ns#"
   xmlns:rdf="http://www.w3.org/1999/02/22-rdf-syntax-ns#"
   xmlns:svg="http://www.w3.org/2000/svg"
   xmlns="http://www.w3.org/2000/svg"
   xmlns:sodipodi="http://sodipodi.sourceforge.net/DTD/sodipodi-0.dtd"
   xmlns:inkscape="http://www.inkscape.org/namespaces/inkscape"
   data-name="Layer 1"
   viewBox="0 0 100 100"
   x="0px"
   y="0px"
   version="1.1"
   id="svg4493"
   sodipodi:docname="duration.svg"
   width="100"
   height="100"
   inkscape:version="0.92.1 r15371"
   inkscape:export-filename="C:\Projects\SpellParser\site\img\duration.png"
   inkscape:export-xdpi="245.75999"
   inkscape:export-ydpi="245.75999">
  <metadata
     id="metadata4499">
    <rdf:RDF>
      <cc:Work
         rdf:about="">
        <dc:format>image/svg+xml</dc:format>
        <dc:type
           rdf:resource="http://purl.org/dc/dcmitype/StillImage" />
        <dc:title>Artboard 11</dc:title>
      </cc:Work>
    </rdf:RDF>
  </metadata>
  <defs
     id="defs4497" />
  <sodipodi:namedview
     pagecolor="#ffffff"
     bordercolor="#666666"
     borderopacity="1"
     objecttolerance="10"
     gridtolerance="10"
     guidetolerance="10"
     inkscape:pageopacity="0"
     inkscape:pageshadow="2"
     inkscape:window-width="1920"
     inkscape:window-height="1017"
     id="namedview4495"
     showgrid="false"
     inkscape:zoom="6.784"
     inkscape:cx="50"
     inkscape:cy="56.603774"
     inkscape:window-x="1912"
     inkscape:window-y="-8"
     inkscape:window-maximized="1"
     inkscape:current-layer="svg4493" />
  <title
     id="title4485">Artboard 11</title>
  <path
     d="M 84,2 H 16 a 6,6 0 0 0 -6,6 v 0 a 6,6 0 0 0 6,6 h 0.21 v 6 a 30.17,30.17 0 0 0 19.28,28.29 1.64,1.64 0 0 1 1.11,1.49 v 0.45 A 1.65,1.65 0 0 1 35.49,51.72 30.16,30.16 0 0 0 16.22,80 v 6 H 16 a 6,6 0 0 0 -6,6 v 0 a 6,6 0 0 0 6,6 h 68 a 6,6 0 0 0 6,-6 v 0 A 6,6 0 0 0 84,86 H 83.79 V 80 A 30.17,30.17 0 0 0 64.51,51.71 1.64,1.64 0 0 1 63.4,50.22 V 49.77 A 1.65,1.65 0 0 1 64.51,48.28 30.16,30.16 0 0 0 83.78,20 V 14 H 84 A 6,6 0 0 0 90,8 V 8 A 6,6 0 0 0 84,2 Z m -8.2,18 a 22.23,22.23 0 0 1 -14.2,20.86 9.57,9.57 0 0 0 -6.18,8.92 v 0.45 A 9.57,9.57 0 0 0 61.6,59.15 22.23,22.23 0 0 1 75.8,80 v 6 H 24.2 V 80 A 22.23,22.23 0 0 1 38.4,59.14 9.57,9.57 0 0 0 44.58,50.22 V 49.77 A 9.57,9.57 0 0 0 38.4,40.85 22.23,22.23 0 0 1 24.2,20 V 14 H 75.8 Z M 32.42,30.16 a 1.79,1.79 0 0 1 1.49,-2.8 h 32.18 a 1.79,1.79 0 0 1 1.49,2.8 17.33,17.33 0 0 1 -7.8,6.05 14.69,14.69 0 0 0 -7.71,6.87 2.34,2.34 0 0 1 -4.15,0 14.69,14.69 0 0 0 -7.71,-6.87 17.33,17.33 0 0 1 -7.79,-6.05 z M 55,66.36 a 9.15,9.15 0 0 0 6.26,2.41 v 0 a 9.28,9.28 0 0 1 9,7 l 0.09,0.39 a 15.3,15.3 0 0 1 0.34,2.76 v 0 a 2,2 0 0 1 -2,2.1 H 31.28 a 2,2 0 0 1 -2,-2.1 15.44,15.44 0 0 1 0.36,-2.89 l 0.1,-0.42 a 9.25,9.25 0 0 1 9,-6.87 9.15,9.15 0 0 0 6.26,-2.38 14.48,14.48 0 0 0 2.93,-3.85 2.35,2.35 0 0 1 2.52,-1.24 2.42,2.42 0 0 1 1.67,1.27 14.47,14.47 0 0 0 2.88,3.82 z"
     id="path4487"
     inkscape:connector-curvature="0" />
</svg>
