<?xml version="1.0" encoding="UTF-8" standalone="no"?>
<svg
   xmlns:dc="http://purl.org/dc/elements/1.1/"
   xmlns:cc="http://creativecommons.org/ns#"
   xmlns:rdf="http://www.w3.org/1999/02/22-rdf-syntax-ns#"
   xmlns:svg="http://www.w3.org/2000/svg"
   xmlns="http://www.w3.org/2000/svg"
   xmlns:sodipodi="http://sodipodi.sourceforge.net/DTD/sodipodi-0.dtd"
   xmlns:inkscape="http://www.inkscape.org/namespaces/inkscape"
   version="1.1"
   x="0px"
   y="0px"
   viewBox="0 0 100 100"
   enable-background="new 0 0 128 128"
   xml:space="preserve"
   id="svg14"
   sodipodi:docname="range.svg"
   width="100"
   height="100"
   inkscape:version="0.92.1 r15371"
   inkscape:export-filename="C:\Projects\SpellParser\site\img\range.png"
   inkscape:export-xdpi="245.75999"
   inkscape:export-ydpi="245.75999"><metadata
     id="metadata20"><rdf:RDF><cc:Work
         rdf:about=""><dc:format>image/svg+xml</dc:format><dc:type
           rdf:resource="http://purl.org/dc/dcmitype/StillImage" /><dc:title></dc:title></cc:Work></rdf:RDF></metadata><defs
     id="defs18" /><sodipodi:namedview
     pagecolor="#ffffff"
     bordercolor="#666666"
     borderopacity="1"
     objecttolerance="10"
     gridtolerance="10"
     guidetolerance="10"
     inkscape:pageopacity="0"
     inkscape:pageshadow="2"
     inkscape:window-width="1920"
     inkscape:window-height="1017"
     id="namedview16"
     showgrid="false"
     inkscape:zoom="4.17193"
     inkscape:cx="67.504615"
     inkscape:cy="73.414484"
     inkscape:window-x="1912"
     inkscape:window-y="-8"
     inkscape:window-maximized="1"
     inkscape:current-layer="svg14" /><g
     id="g8"
     transform="matrix(0.76551259,0,0,0.76551259,1.007577,1.0074153)"><path
       d="m 97.688,81.52 h -11.13 c -1.065,1.502 -2.124,2.993 -3.183,4.484 h 11.674 l 6.871,12.369 H 83.033 v 4.484 h 21.375 l 10.564,19.016 H 66.197 v -10.088 h -4.484 v 10.088 H 12.842 L 22.88,102.857 H 44.244 V 98.373 H 25.245 l 6.529,-12.369 h 12.84 C 43.555,84.513 42.495,83.017 41.436,81.52 H 29.067 L 5.405,126.355 h 117.189 z"
       id="path2"
       inkscape:connector-curvature="0"
       style="fill:#000000" /><path
       d="M 101.779,33.016 C 97.956,12.213 77.797,-1.553 56.932,2.287 38.807,5.616 25.552,21.61 25.525,41.726 c 0.07,6.526 2.396,13.916 7.072,20.53 9.485,13.413 19.006,26.818 28.518,40.223 1.656,2.334 4.078,2.334 5.733,0.018 9.512,-13.413 19.059,-26.792 28.509,-40.232 6.211,-8.834 8.377,-18.645 6.422,-29.249 z m -54.643,4.342 h -5.655 c 1.065,-10.676 9.58,-19.191 20.256,-20.256 v 5.655 c 0,1.25 1.013,2.263 2.263,2.263 1.25,0 2.263,-1.013 2.263,-2.263 v -5.655 c 10.676,1.065 19.191,9.58 20.256,20.256 h -5.655 c -1.25,0 -2.263,1.013 -2.263,2.263 0,1.25 1.013,2.263 2.263,2.263 h 5.655 C 85.455,52.56 76.94,61.075 66.264,62.14 v -5.655 c 0,-1.25 -1.013,-2.263 -2.263,-2.263 -1.25,0 -2.263,1.013 -2.263,2.263 V 62.14 C 51.062,61.075 42.547,52.56 41.482,41.884 h 5.655 c 1.25,0 2.263,-1.013 2.263,-2.263 -10e-4,-1.25 -1.014,-2.263 -2.264,-2.263 z"
       id="path4"
       inkscape:connector-curvature="0"
       style="fill:#000000" /><circle
       cx="64"
       cy="39.620998"
       r="7.2340002"
       id="circle6"
       style="fill:#000000" /></g></svg>