<?xml version="1.0" encoding="UTF-8" standalone="no"?>
<svg
   xmlns:dc="http://purl.org/dc/elements/1.1/"
   xmlns:cc="http://creativecommons.org/ns#"
   xmlns:rdf="http://www.w3.org/1999/02/22-rdf-syntax-ns#"
   xmlns:svg="http://www.w3.org/2000/svg"
   xmlns="http://www.w3.org/2000/svg"
   xmlns:sodipodi="http://sodipodi.sourceforge.net/DTD/sodipodi-0.dtd"
   xmlns:inkscape="http://www.inkscape.org/namespaces/inkscape"
   version="1.1"
   x="0px"
   y="0px"
   viewBox="0 0 100 100"
   enable-background="new 0 0 90 90"
   xml:space="preserve"
   id="svg14"
   sodipodi:docname="ritual.svg"
   width="100"
   height="100"
   inkscape:version="0.92.1 r15371"
   inkscape:export-filename="C:\Projects\SpellParser\site\img\ritual.png"
   inkscape:export-xdpi="245.75999"
   inkscape:export-ydpi="245.75999"><metadata
     id="metadata20"><rdf:RDF><cc:Work
         rdf:about=""><dc:format>image/svg+xml</dc:format><dc:type
           rdf:resource="http://purl.org/dc/dcmitype/StillImage" /><dc:title /></cc:Work></rdf:RDF></metadata><defs
     id="defs18" /><sodipodi:namedview
     pagecolor="#ffffff"
     bordercolor="#666666"
     borderopacity="1"
     objecttolerance="10"
     gridtolerance="10"
     guidetolerance="10"
     inkscape:pageopacity="0"
     inkscape:pageshadow="2"
     inkscape:window-width="1920"
     inkscape:window-height="1057"
     id="namedview16"
     showgrid="false"
     inkscape:zoom="2.0977778"
     inkscape:cx="-260.79978"
     inkscape:cy="52.43644"
     inkscape:window-x="-8"
     inkscape:window-y="-8"
     inkscape:window-maximized="1"
     inkscape:current-layer="svg14" /><g
     id="g4501"
     transform="translate(0.208513,0.01799956)"><path
       style="stroke-width:1.12974513"
       inkscape:connector-curvature="0"
       id="path2"
       d="m 91.512974,61.072698 c 0,-11.086189 -4.332573,-21.155607 -11.384442,-28.626611 2.206393,-1.207698 3.451372,-2.566781 3.451372,-4.003817 0,-3.704434 -8.24601,-6.890315 -20.064273,-8.305886 0.02146,0.250803 0.03841,0.503866 0.03841,0.760319 0,1.095852 -0.202225,2.141996 -0.553575,3.115837 6.004595,0.737723 9.939497,1.962367 9.939497,3.345175 0,2.247063 -10.363152,4.071601 -23.146218,4.071601 -12.783066,0 -23.150736,-1.824538 -23.150736,-4.071601 0,-1.991741 8.151111,-3.654726 18.908544,-4.006076 -0.216912,-0.781784 -0.342313,-1.603109 -0.342313,-2.454936 0,-0.499348 0.05084,-0.986268 0.127661,-1.46302 -16.554155,0.587467 -29.330443,4.396968 -29.330443,9.008587 0,1.435906 1.24498,2.796119 3.451372,4.003817 C 12.402572,39.918221 8.07,49.986509 8.07,61.072698 c 0,12.152668 5.199087,20.180637 13.489157,25.061136 -1.317283,3.838874 -2.606322,9.762127 0.798729,11.295192 3.508989,1.574864 7.207774,-3.684099 9.161104,-7.231499 5.518804,1.483355 11.718846,2.152164 18.273627,2.152164 6.553651,0 12.751433,-0.668809 18.269108,-2.152164 1.955589,3.548529 5.652115,8.806363 9.159973,7.231499 3.403922,-1.533065 2.114883,-7.454059 0.79647,-11.292933 8.294589,-4.878239 13.494806,-12.909597 13.494806,-25.063395 z" /><circle
       style="stroke-width:1.12974513"
       id="circle4"
       r="6.1684084"
       cy="20.897833"
       cx="54.380512" /><path
       style="stroke-width:1.12974513"
       inkscape:connector-curvature="0"
       id="path6"
       d="m 73.056328,11.403454 c 0,2.344221 -1.899102,4.239934 -4.235414,4.239934 -2.343092,0 -4.239934,-1.896842 -4.239934,-4.239934 0,-2.3363125 1.896842,-4.2342843 4.239934,-4.2342843 2.336312,0 4.235414,1.896842 4.235414,4.2342843 z" /><path
       style="stroke-width:1.12974513"
       inkscape:connector-curvature="0"
       id="path8"
       d="m 59.906095,5.4632546 c 0,1.7782188 -1.440425,3.2186438 -3.214125,3.2186438 -1.777089,0 -3.218644,-1.4392953 -3.218644,-3.2186438 0,-1.7725701 1.440425,-3.2152546 3.218644,-3.2152546 1.7737,0 3.214125,1.4426845 3.214125,3.2152546 z" /></g><text
     xml:space="preserve"
     style="font-style:normal;font-variant:normal;font-weight:normal;font-stretch:normal;font-size:47.33856201px;line-height:125%;font-family:'Bookman Old Style';-inkscape-font-specification:'Bookman Old Style';letter-spacing:0px;word-spacing:0px;fill:#ffffff;fill-opacity:1;stroke:none;stroke-width:2.1039362px;stroke-linecap:butt;stroke-linejoin:miter;stroke-opacity:1"
     x="34.158451"
     y="75.962105"
     id="text4488"><tspan
       sodipodi:role="line"
       id="tspan4486"
       x="34.158451"
       y="75.962105"
       style="font-style:normal;font-variant:normal;font-weight:bold;font-stretch:normal;font-family:Arial;-inkscape-font-specification:Arial;stroke-width:2.1039362px">R</tspan></text>
</svg>