<?xml version="1.0" encoding="UTF-8" standalone="no"?>
<svg
   xmlns:dc="http://purl.org/dc/elements/1.1/"
   xmlns:cc="http://creativecommons.org/ns#"
   xmlns:rdf="http://www.w3.org/1999/02/22-rdf-syntax-ns#"
   xmlns:svg="http://www.w3.org/2000/svg"
   xmlns="http://www.w3.org/2000/svg"
   xmlns:sodipodi="http://sodipodi.sourceforge.net/DTD/sodipodi-0.dtd"
   xmlns:inkscape="http://www.inkscape.org/namespaces/inkscape"
   version="1.1"
   x="0px"
   y="0px"
   viewBox="0 0 100 100"
   enable-background="new 0 0 100 100"
   xml:space="preserve"
   id="svg12"
   sodipodi:docname="unknown.svg"
   width="100"
   height="100"
   inkscape:version="0.92.1 r15371"
   inkscape:export-filename="C:\Projects\SpellParser\site\img\unknown.png"
   inkscape:export-xdpi="245.75999"
   inkscape:export-ydpi="245.75999"><metadata
     id="metadata18"><rdf:RDF><cc:Work
         rdf:about=""><dc:format>image/svg+xml</dc:format><dc:type
           rdf:resource="http://purl.org/dc/dcmitype/StillImage" /><dc:title></dc:title></cc:Work></rdf:RDF></metadata><defs
     id="defs16" /><sodipodi:namedview
     pagecolor="#ffffff"
     bordercolor="#666666"
     borderopacity="1"
     objecttolerance="10"
     gridtolerance="10"
     guidetolerance="10"
     inkscape:pageopacity="0"
     inkscape:pageshadow="2"
     inkscape:window-width="1920"
     inkscape:window-height="1017"
     id="namedview14"
     showgrid="false"
     inkscape:zoom="5.3400704"
     inkscape:cx="66.312216"
     inkscape:cy="41.876687"
     inkscape:window-x="1912"
     inkscape:window-y="-8"
     inkscape:window-maximized="1"
     inkscape:current-layer="svg12" /><g
     id="g6"
     transform="matrix(1.0748795,0,0,1.0748795,-3.7434377,-3.7450499)"><path
       d="m 79.893,11.482 h -0.189 v -0.859 c 0,-2.654 -2.16,-4.813 -4.816,-4.813 H 19.849 c -2.655,0 -4.814,2.159 -4.814,4.813 v 73.28 0 c 0,0.805 0.217,1.551 0.567,2.219 v 2.998 c 0,2.797 2.275,5.072 5.072,5.072 h 59.218 c 2.797,0 5.072,-2.275 5.072,-5.072 V 16.554 c 0.001,-2.797 -2.275,-5.072 -5.071,-5.072 z m -5.006,74.401 h -4.73 l 6.711,-6.711 v 4.73 c -10e-4,1.092 -0.889,1.981 -1.981,1.981 z M 76.867,75.164 66.148,85.883 H 28.969 V 8.643 h 37.162 l 10.517,10.517 0.219,-0.219 z m 0,-64.541 v 4.748 L 70.138,8.643 h 4.748 c 1.093,0 1.981,0.888 1.981,1.98 z m -58.997,0 c 0,-1.092 0.888,-1.979 1.979,-1.979 h 6.284 v 77.24 h -6.284 c -1.092,0 -1.979,-0.889 -1.979,-1.98 z m 64.261,78.496 c 0,1.234 -1.004,2.238 -2.238,2.238 H 20.674 c -1.234,0 -2.238,-1.004 -2.238,-2.238 V 88.48 c 0.45,0.139 0.918,0.236 1.413,0.236 h 55.038 c 0.996,0 1.922,-0.305 2.691,-0.824 1.281,-0.865 2.125,-2.33 2.125,-3.99 v 0 -69.586 h 0.189 c 1.234,0 2.238,1.004 2.238,2.238 v 72.565 z"
       id="path2"
       inkscape:connector-curvature="0" /><path
       d="m 51.352,30.262 c -9.134,0 -16.566,7.432 -16.566,16.566 0,9.134 7.432,16.566 16.566,16.566 9.135,0 16.566,-7.432 16.566,-16.566 0,-9.134 -7.432,-16.566 -16.566,-16.566 z m 12.275,10.447 h -7.736 l -2.414,-7.432 c 4.455,0.697 8.199,3.534 10.15,7.432 z m -16.71,10.024 2.214,1.609 -3.583,2.602 z m -1.491,-4.587 -3.582,-2.603 h 4.428 z m 2.411,1.752 1.415,-4.354 h 4.578 l 1.416,4.354 -3.705,2.691 z m 3.704,-11.4 1.369,4.212 h -2.737 z m 4.625,14.235 1.369,4.21 -3.582,-2.602 z m 0.645,-7.19 h 4.428 l -3.582,2.603 z m -7.184,-10.327 -2.435,7.493 h -8.116 c 2.01,-4.014 5.921,-6.908 10.551,-7.493 z M 37.62,46.829 c 0,-0.91 0.094,-1.798 0.264,-2.659 l 6.622,4.812 -2.547,7.837 C 39.295,54.313 37.62,50.766 37.62,46.829 Z m 7.259,12.105 6.662,-4.84 6.496,4.719 c -1.98,1.109 -4.258,1.748 -6.686,1.748 -2.339,0 -4.542,-0.59 -6.472,-1.627 z m 16.16,-2.381 -2.461,-7.572 6.279,-4.563 c 0.141,0.785 0.227,1.588 0.227,2.411 0,3.796 -1.549,7.235 -4.045,9.724 z"
       id="path4"
       inkscape:connector-curvature="0" /></g></svg>